<?xml version="1.0" encoding="utf-8"?>
<!-- Generator: Adobe Illustrator 21.0.0, SVG Export Plug-In . SVG Version: 6.00 Build 0)  -->
<svg version="1.1" id="Layer_1" xmlns="http://www.w3.org/2000/svg" xmlns:xlink="http://www.w3.org/1999/xlink" x="0px" y="0px"
	 viewBox="0 0 171.4 65.3" style="enable-background:new 0 0 171.4 65.3;" xml:space="preserve">
<style type="text/css">
	.st0{fill:#322F56;}
	.st1{fill:#E20D18;}
</style>
<g>
	<path class="st0" d="M165.9,37.4h-52.7c-2.9,0-5.3-2.4-5.3-5.3s2.4-5.3,5.3-5.3h52.7c2.9,0,5.3,2.4,5.3,5.3S168.8,37.4,165.9,37.4z
		"/>
	<path class="st1" d="M165.9,22.2c-0.7,0-1.4-0.1-2.1-0.4l-24.4-10.7l-24,10.7c-2.7,1.2-5.8,0-7-2.7s0-5.8,2.7-7l26.2-11.6
		c1.4-0.6,2.9-0.6,4.3,0l26.6,11.6c2.7,1.2,3.9,4.3,2.7,7C169.9,21,167.9,22.2,165.9,22.2z"/>
	<path class="st1" d="M139.7,64.3c-0.7,0-1.4-0.1-2.1-0.4L111,52.3c-2.7-1.2-3.9-4.3-2.7-7s4.3-3.9,7-2.7l24.4,10.7l24-10.7
		c2.7-1.2,5.8,0,7,2.7s0,5.8-2.7,7l-26.2,11.6C141.2,64.1,140.4,64.3,139.7,64.3z"/>
	<path class="st0" d="M101.5,45.7c0-4.9-1.3-8.6-3.9-11.2c-2.7-2.7-7.2-5.2-13.8-7.6c-6.2-2.3-9.4-5.2-9.4-8.7
		c0-4.5,3.2-7.3,8.4-7.3c2.5,0,4.6,0.6,6.3,1.7c1.2,0.8,2.4,1.2,3.4,1.2c3.4,0,5.2-1.9,5.2-5.5c0-4.8-6.3-8.1-15.3-8.1
		c-6.1,0-10.9,1.6-14.8,4.9s-5.8,7.6-5.8,13.1c0,8.4,4.9,14,15.9,17.9c4.2,1.5,7,2.8,8.5,4c1.7,1.3,2.7,3.4,2.7,6.1
		c0,3.9-2.9,7.9-9.4,7.9c-2.5,0-5.1-0.7-7.5-1.9c-2.6-1.4-3.9-1.7-4.5-1.7c-3.5,0-5.9,2.4-5.9,5.7c0,2.3,1.5,4.4,4.6,6.2
		c3.3,1.9,7.6,2.9,13.1,2.9c6.4,0,11.8-1.8,16-5.3C99.4,56.4,101.5,51.6,101.5,45.7z"/>
	<path class="st0" d="M45.1,41.1v17.5c0,3.1,2.5,5.6,5.5,5.7h0.2c3.1,0,5.6-2.6,5.6-5.7v-7.2v-0.1V6.9c0-2.2-1.3-4.2-3.3-5.1
		S48.7,1.2,47,2.7L28.2,19L9.4,2.7c-1-0.9-2.3-1.4-3.7-1.4c-0.8,0-1.6,0.2-2.4,0.5C1.3,2.7,0,4.7,0,6.9v51.7c0,3.1,2.5,5.7,5.7,5.7
		c3.1,0,5.7-2.5,5.7-5.7V19.3l13.2,11.4c1,0.9,2.3,1.4,3.7,1.4s2.7-0.5,3.7-1.4l13.2-11.4L45.1,41.1L45.1,41.1z"/>
</g>
</svg>
